<svg xmlns="http://www.w3.org/2000/svg" width="640" height="420" viewBox="0 0 640 420"><rect x="0" y="0" width="640" height="420" fill="#181825" rx="6"></rect><text x="320" y="26" text-anchor="middle" fill="#a6adc8" font-family="'Segoe UI', system-ui, sans-serif" font-size="14" letter-spacing="0.3">Purity vs freshness</text><rect x="441" y="44" width="159" height="97.2" fill="#5aab7b" opacity="0.1" rx="6"></rect><text x="520.5" y="60" text-anchor="middle" fill="#6c7086" font-family="'Segoe UI', system-ui, sans-serif" font-size="10" font-style="italic">Ideal zone</text><line x1="70" y1="368" x2="600" y2="368" stroke="#313244" stroke-width="0.5"></line><line x1="70" y1="368" x2="70" y2="44" stroke="#313244" stroke-width="0.5"></line><line x1="70" y1="287" x2="600" y2="287" stroke="#313244" stroke-width="0.5"></line><line x1="202.5" y1="368" x2="202.5" y2="44" stroke="#313244" stroke-width="0.5"></line><line x1="70" y1="206" x2="600" y2="206" stroke="#313244" stroke-width="0.5"></line><line x1="335" y1="368" x2="335" y2="44" stroke="#313244" stroke-width="0.5"></line><line x1="70" y1="125" x2="600" y2="125" stroke="#313244" stroke-width="0.5"></line><line x1="467.5" y1="368" x2="467.5" y2="44" stroke="#313244" stroke-width="0.5"></line><line x1="70" y1="44" x2="600" y2="44" stroke="#313244" stroke-width="0.5"></line><line x1="600" y1="368" x2="600" y2="44" stroke="#313244" stroke-width="0.5"></line><line x1="70" y1="368" x2="600" y2="368" stroke="#585b70" stroke-width="1"></line><line x1="70" y1="368" x2="70" y2="44" stroke="#585b70" stroke-width="1"></line><text x="335" y="412" text-anchor="middle" fill="#a6adc8" font-family="'Segoe UI', system-ui, sans-serif" font-size="12">Freshness →</text><text x="18" y="206" text-anchor="middle" fill="#a6adc8" font-family="'Segoe UI', system-ui, sans-serif" font-size="12" transform="rotate(-90, 18, 206)">← Purity</text><text x="70" y="386" text-anchor="middle" fill="#6c7086" font-family="'Segoe UI', system-ui, sans-serif" font-size="10">Daily</text><text x="335" y="386" text-anchor="middle" fill="#6c7086" font-family="'Segoe UI', system-ui, sans-serif" font-size="10">Hourly</text><text x="600" y="386" text-anchor="middle" fill="#6c7086" font-family="'Segoe UI', system-ui, sans-serif" font-size="10">Sub-hourly</text><text x="60" y="372" text-anchor="end" fill="#6c7086" font-family="'Segoe UI', system-ui, sans-serif" font-size="10">Low</text><text x="60" y="210" text-anchor="end" fill="#6c7086" font-family="'Segoe UI', system-ui, sans-serif" font-size="10">Medium</text><text x="60" y="48" text-anchor="end" fill="#6c7086" font-family="'Segoe UI', system-ui, sans-serif" font-size="10">High</text><circle cx="133.6" cy="60.20000000000002" r="11" fill="#6c8ebf" opacity="0.12"></circle><circle cx="133.6" cy="60.20000000000002" r="7" fill="#6c8ebf"></circle><text x="148.6" y="64.20000000000002" text-anchor="start" fill="#6c8ebf" font-family="'Segoe UI', system-ui, sans-serif" font-size="11" font-weight="600">Full replace</text><circle cx="520.5" cy="222.20000000000002" r="11" fill="#d46a6a" opacity="0.12"></circle><circle cx="520.5" cy="222.20000000000002" r="7" fill="#d46a6a"></circle><text x="535.5" y="226.20000000000002" text-anchor="start" fill="#d46a6a" font-family="'Segoe UI', system-ui, sans-serif" font-size="11" font-weight="600">Incremental</text><circle cx="361.5" cy="115.27999999999999" r="11" fill="#d4a040" opacity="0.12"></circle><circle cx="361.5" cy="115.27999999999999" r="7" fill="#d4a040"></circle><text x="376.5" y="119.27999999999999" text-anchor="start" fill="#d4a040" font-family="'Segoe UI', system-ui, sans-serif" font-size="11" font-weight="600">Hybrid</text><circle cx="467.5" cy="141.20000000000002" r="11" fill="#5aab7b" opacity="0.12"></circle><circle cx="467.5" cy="141.20000000000002" r="7" fill="#5aab7b"></circle><text x="482.5" y="145.20000000000002" text-anchor="start" fill="#5aab7b" font-family="'Segoe UI', system-ui, sans-serif" font-size="11" font-weight="600">Append + materialize</text><circle cx="229" cy="82.88" r="11" fill="#8878b8" opacity="0.12"></circle><circle cx="229" cy="82.88" r="7" fill="#8878b8"></circle><text x="244" y="86.88" text-anchor="start" fill="#8878b8" font-family="'Segoe UI', system-ui, sans-serif" font-size="11" font-weight="600">Scoped replace</text></svg>
