<svg xmlns="http://www.w3.org/2000/svg" width="800" height="192" viewBox="0 0 800 192"><rect x="0" y="0" width="800" height="192" fill="#181825" rx="6"></rect><text x="400" y="20" text-anchor="middle" fill="#a6adc8" font-family="'Segoe UI', system-ui, sans-serif" font-size="13" letter-spacing="0.3">Scoped full replace</text><rect x="40" y="96" width="307.7142857142857" height="56" fill="#585b70" rx="3"></rect><text x="193.85714285714286" y="116.5" text-anchor="middle" dominant-baseline="central" fill="#cdd6f4" font-family="'Segoe UI', system-ui, sans-serif" font-size="12" font-weight="600">FROZEN ZONE</text><text x="193.85714285714286" y="131.5" text-anchor="middle" dominant-baseline="central" fill="#cdd6f4" font-family="'Segoe UI', system-ui, sans-serif" font-size="12" font-weight="600">(before scope_start)</text><rect x="349.7142857142857" y="96" width="410.2857142857143" height="56" fill="#6c8ebf" rx="3"></rect><text x="554.8571428571429" y="116.5" text-anchor="middle" dominant-baseline="central" fill="#cdd6f4" font-family="'Segoe UI', system-ui, sans-serif" font-size="12" font-weight="600">MANAGED ZONE</text><text x="554.8571428571429" y="131.5" text-anchor="middle" dominant-baseline="central" fill="#cdd6f4" font-family="'Segoe UI', system-ui, sans-serif" font-size="12" font-weight="600">(scope_start → today)</text><line x1="40" y1="88" x2="347.7142857142857" y2="88" stroke="#585b70" stroke-width="1"></line><line x1="40" y1="85" x2="40" y2="91" stroke="#585b70" stroke-width="1"></line><line x1="347.7142857142857" y1="85" x2="347.7142857142857" y2="91" stroke="#585b70" stroke-width="1"></line><text x="193.85714285714286" y="80" text-anchor="middle" fill="#a6adc8" font-family="'Segoe UI', system-ui, sans-serif" font-size="11">Loaded once, never touched again</text><line x1="349.7142857142857" y1="60" x2="760" y2="60" stroke="#585b70" stroke-width="1"></line><line x1="349.7142857142857" y1="57" x2="349.7142857142857" y2="63" stroke="#585b70" stroke-width="1"></line><line x1="760" y1="57" x2="760" y2="63" stroke="#585b70" stroke-width="1"></line><text x="554.8571428571429" y="52" text-anchor="middle" fill="#a6adc8" font-family="'Segoe UI', system-ui, sans-serif" font-size="11">Replaced every run via partition swap</text><line x1="40" y1="160" x2="760" y2="160" stroke="#585b70" stroke-width="1"></line><line x1="40" y1="157" x2="40" y2="163" stroke="#585b70" stroke-width="1"></line><line x1="760" y1="157" x2="760" y2="163" stroke="#585b70" stroke-width="1"></line><text x="400" y="174" text-anchor="middle" fill="#a6adc8" font-family="'Segoe UI', system-ui, sans-serif" font-size="11">Full table from consumer perspective</text></svg>
