<svg xmlns="http://www.w3.org/2000/svg" width="800" height="192" viewBox="0 0 800 192"><rect x="0" y="0" width="800" height="192" fill="#181825" rx="6"></rect><text x="400" y="20" text-anchor="middle" fill="#a6adc8" font-family="'Segoe UI', system-ui, sans-serif" font-size="13" letter-spacing="0.3">Rolling window replace</text><rect x="40" y="96" width="512.8571428571429" height="56" fill="#585b70" rx="3"></rect><text x="296.42857142857144" y="116.5" text-anchor="middle" dominant-baseline="central" fill="#cdd6f4" font-family="'Segoe UI', system-ui, sans-serif" font-size="12" font-weight="600">FROZEN</text><text x="296.42857142857144" y="131.5" text-anchor="middle" dominant-baseline="central" fill="#cdd6f4" font-family="'Segoe UI', system-ui, sans-serif" font-size="12" font-weight="600">(outside window)</text><rect x="554.8571428571429" y="96" width="205.14285714285714" height="56" fill="#b8a44e" rx="3"></rect><text x="657.4285714285714" y="116.5" text-anchor="middle" dominant-baseline="central" fill="#cdd6f4" font-family="'Segoe UI', system-ui, sans-serif" font-size="12" font-weight="600">WINDOW</text><text x="657.4285714285714" y="131.5" text-anchor="middle" dominant-baseline="central" fill="#cdd6f4" font-family="'Segoe UI', system-ui, sans-serif" font-size="12" font-weight="600">(last N days)</text><line x1="40" y1="88" x2="552.8571428571429" y2="88" stroke="#585b70" stroke-width="1"></line><line x1="40" y1="85" x2="40" y2="91" stroke="#585b70" stroke-width="1"></line><line x1="552.8571428571429" y1="85" x2="552.8571428571429" y2="91" stroke="#585b70" stroke-width="1"></line><text x="296.42857142857144" y="80" text-anchor="middle" fill="#a6adc8" font-family="'Segoe UI', system-ui, sans-serif" font-size="11">Never re-extracted — stale if source changed</text><line x1="554.8571428571429" y1="60" x2="760" y2="60" stroke="#585b70" stroke-width="1"></line><line x1="554.8571428571429" y1="57" x2="554.8571428571429" y2="63" stroke="#585b70" stroke-width="1"></line><line x1="760" y1="57" x2="760" y2="63" stroke="#585b70" stroke-width="1"></line><text x="657.4285714285714" y="52" text-anchor="middle" fill="#a6adc8" font-family="'Segoe UI', system-ui, sans-serif" font-size="11">Dropped and reloaded every run</text><line x1="40" y1="160" x2="760" y2="160" stroke="#585b70" stroke-width="1"></line><line x1="40" y1="157" x2="40" y2="163" stroke="#585b70" stroke-width="1"></line><line x1="760" y1="157" x2="760" y2="163" stroke="#585b70" stroke-width="1"></line><text x="400" y="174" text-anchor="middle" fill="#a6adc8" font-family="'Segoe UI', system-ui, sans-serif" font-size="11">Window advances daily → frozen zone grows</text></svg>
