<svg xmlns="http://www.w3.org/2000/svg" width="800" height="186" viewBox="0 0 800 186"><rect x="0" y="0" width="800" height="186" fill="#ffffff" rx="6"></rect><text x="400" y="22" text-anchor="middle" fill="#7c6f64" font-family="'Segoe UI', system-ui, sans-serif" font-size="13" letter-spacing="0.3">Stateless window — fixed trailing window, no cursor</text><line x1="50" y1="46" x2="750" y2="46" stroke="#d5c4a1" stroke-width="1"></line><line x1="50" y1="43" x2="50" y2="49" stroke="#d5c4a1" stroke-width="1"></line><text x="50" y="172" text-anchor="middle" fill="#928374" font-family="'Segoe UI', system-ui, sans-serif" font-size="10">Day 1</text><line x1="150" y1="43" x2="150" y2="49" stroke="#d5c4a1" stroke-width="1"></line><text x="150" y="172" text-anchor="middle" fill="#928374" font-family="'Segoe UI', system-ui, sans-serif" font-size="10">Day 2</text><line x1="250" y1="43" x2="250" y2="49" stroke="#d5c4a1" stroke-width="1"></line><text x="250" y="172" text-anchor="middle" fill="#928374" font-family="'Segoe UI', system-ui, sans-serif" font-size="10">Day 3</text><line x1="350" y1="43" x2="350" y2="49" stroke="#d5c4a1" stroke-width="1"></line><text x="350" y="172" text-anchor="middle" fill="#928374" font-family="'Segoe UI', system-ui, sans-serif" font-size="10">Day 4</text><line x1="450" y1="43" x2="450" y2="49" stroke="#d5c4a1" stroke-width="1"></line><text x="450" y="172" text-anchor="middle" fill="#928374" font-family="'Segoe UI', system-ui, sans-serif" font-size="10">Day 5</text><line x1="550" y1="43" x2="550" y2="49" stroke="#d5c4a1" stroke-width="1"></line><text x="550" y="172" text-anchor="middle" fill="#928374" font-family="'Segoe UI', system-ui, sans-serif" font-size="10">Day 6</text><line x1="650" y1="43" x2="650" y2="49" stroke="#d5c4a1" stroke-width="1"></line><text x="650" y="172" text-anchor="middle" fill="#928374" font-family="'Segoe UI', system-ui, sans-serif" font-size="10">Day 7</text><line x1="750" y1="43" x2="750" y2="49" stroke="#d5c4a1" stroke-width="1"></line><text x="750" y="172" text-anchor="middle" fill="#928374" font-family="'Segoe UI', system-ui, sans-serif" font-size="10">Day 8</text><rect x="50" y="56" width="300" height="28" fill="#6c8ebf" rx="3" opacity="0.85"></rect><g><defs><clipPath id="clip-k2xjfj"><rect x="54" y="56" width="292" height="28"></rect></clipPath></defs><text x="200" y="70" text-anchor="middle" dominant-baseline="central" fill="#3c3836" font-family="'Segoe UI', system-ui, sans-serif" font-size="10.5" font-weight="600" clip-path="url(#clip-k2xjfj)">Run on Day 3 (3-day window)</text></g><rect x="150" y="90" width="300" height="28" fill="#6c8ebf" rx="3" opacity="0.85"></rect><g><defs><clipPath id="clip-vkixzd"><rect x="154" y="90" width="292" height="28"></rect></clipPath></defs><text x="300" y="104" text-anchor="middle" dominant-baseline="central" fill="#3c3836" font-family="'Segoe UI', system-ui, sans-serif" font-size="10.5" font-weight="600" clip-path="url(#clip-vkixzd)">Run on Day 4 (3-day window)</text></g><rect x="250" y="124" width="300" height="28" fill="#6c8ebf" rx="3" opacity="0.85"></rect><g><defs><clipPath id="clip-px2nd8"><rect x="254" y="124" width="292" height="28"></rect></clipPath></defs><text x="400" y="138" text-anchor="middle" dominant-baseline="central" fill="#3c3836" font-family="'Segoe UI', system-ui, sans-serif" font-size="10.5" font-weight="600" clip-path="url(#clip-px2nd8)">Run on Day 5 (3-day window)</text></g></svg>
