<svg xmlns="http://www.w3.org/2000/svg" width="800" height="168" viewBox="0 0 800 168"><rect x="0" y="0" width="800" height="168" fill="#181825" rx="6"></rect><text x="400" y="22" text-anchor="middle" fill="#a6adc8" font-family="'Segoe UI', system-ui, sans-serif" font-size="13" letter-spacing="0.3">Late-arriving data — row missed by cursor</text><line x1="50" y1="66" x2="750" y2="66" stroke="#585b70" stroke-width="1"></line><line x1="50" y1="63" x2="50" y2="69" stroke="#585b70" stroke-width="1"></line><text x="50" y="154" text-anchor="middle" fill="#6c7086" font-family="'Segoe UI', system-ui, sans-serif" font-size="10">08:00</text><line x1="190" y1="63" x2="190" y2="69" stroke="#585b70" stroke-width="1"></line><text x="190" y="154" text-anchor="middle" fill="#6c7086" font-family="'Segoe UI', system-ui, sans-serif" font-size="10">09:00</text><line x1="330" y1="63" x2="330" y2="69" stroke="#585b70" stroke-width="1"></line><text x="330" y="154" text-anchor="middle" fill="#6c7086" font-family="'Segoe UI', system-ui, sans-serif" font-size="10">10:00</text><line x1="470" y1="63" x2="470" y2="69" stroke="#585b70" stroke-width="1"></line><text x="470" y="154" text-anchor="middle" fill="#6c7086" font-family="'Segoe UI', system-ui, sans-serif" font-size="10">11:00</text><line x1="610" y1="63" x2="610" y2="69" stroke="#585b70" stroke-width="1"></line><text x="610" y="154" text-anchor="middle" fill="#6c7086" font-family="'Segoe UI', system-ui, sans-serif" font-size="10">12:00</text><line x1="750" y1="63" x2="750" y2="69" stroke="#585b70" stroke-width="1"></line><text x="750" y="154" text-anchor="middle" fill="#6c7086" font-family="'Segoe UI', system-ui, sans-serif" font-size="10">13:00</text><rect x="50" y="76" width="280" height="28" fill="#6c8ebf" rx="3" opacity="0.85"></rect><g><defs><clipPath id="clip-1lffu9"><rect x="54" y="76" width="272" height="28"></rect></clipPath></defs><text x="190" y="90" text-anchor="middle" dominant-baseline="central" fill="#cdd6f4" font-family="'Segoe UI', system-ui, sans-serif" font-size="10.5" font-weight="600" clip-path="url(#clip-1lffu9)">Run at 10:00 — extracts 08:00–10:00</text></g><rect x="330" y="76" width="280" height="28" fill="#5aab7b" rx="3" opacity="0.85"></rect><g><defs><clipPath id="clip-f4m8h6"><rect x="334" y="76" width="272" height="28"></rect></clipPath></defs><text x="470" y="90" text-anchor="middle" dominant-baseline="central" fill="#cdd6f4" font-family="'Segoe UI', system-ui, sans-serif" font-size="10.5" font-weight="600" clip-path="url(#clip-f4m8h6)">Run at 12:00 — extracts 10:00–12:00</text></g><line x1="330" y1="62" x2="330" y2="106" stroke="#d4a040" stroke-width="1.5" stroke-dasharray="4,3"></line><text x="330" y="58" text-anchor="middle" fill="#d4a040" font-family="'Segoe UI', system-ui, sans-serif" font-size="10" font-weight="600">HWM = 10:00</text><circle cx="260" cy="116" r="5" fill="#d46a6a"></circle><line x1="260" y1="66" x2="260" y2="111" stroke="#d46a6a" stroke-width="1" stroke-dasharray="2,2"></line><text x="268" y="120" text-anchor="start" fill="#d46a6a" font-family="'Segoe UI', system-ui, sans-serif" font-size="9" font-weight="600">Late row: updated_at = 09:30, committed at 10:05</text></svg>
