<svg xmlns="http://www.w3.org/2000/svg" width="800" height="172" viewBox="0 0 800 172"><rect x="0" y="0" width="800" height="172" fill="#ffffff" rx="6"></rect><text x="400" y="22" text-anchor="middle" fill="#7c6f64" font-family="'Segoe UI', system-ui, sans-serif" font-size="13" letter-spacing="0.3">Dual cursors — created_at track + updated_at track</text><line x1="50" y1="66" x2="750" y2="66" stroke="#d5c4a1" stroke-width="1"></line><line x1="50" y1="63" x2="50" y2="69" stroke="#d5c4a1" stroke-width="1"></line><text x="50" y="158" text-anchor="middle" fill="#928374" font-family="'Segoe UI', system-ui, sans-serif" font-size="10">Day 1</text><line x1="190" y1="63" x2="190" y2="69" stroke="#d5c4a1" stroke-width="1"></line><text x="190" y="158" text-anchor="middle" fill="#928374" font-family="'Segoe UI', system-ui, sans-serif" font-size="10">Day 2</text><line x1="330" y1="63" x2="330" y2="69" stroke="#d5c4a1" stroke-width="1"></line><text x="330" y="158" text-anchor="middle" fill="#928374" font-family="'Segoe UI', system-ui, sans-serif" font-size="10">Day 3</text><line x1="470" y1="63" x2="470" y2="69" stroke="#d5c4a1" stroke-width="1"></line><text x="470" y="158" text-anchor="middle" fill="#928374" font-family="'Segoe UI', system-ui, sans-serif" font-size="10">Day 4</text><line x1="610" y1="63" x2="610" y2="69" stroke="#d5c4a1" stroke-width="1"></line><text x="610" y="158" text-anchor="middle" fill="#928374" font-family="'Segoe UI', system-ui, sans-serif" font-size="10">Day 5</text><line x1="750" y1="63" x2="750" y2="69" stroke="#d5c4a1" stroke-width="1"></line><text x="750" y="158" text-anchor="middle" fill="#928374" font-family="'Segoe UI', system-ui, sans-serif" font-size="10">Day 6</text><rect x="50" y="76" width="420" height="28" fill="#6c8ebf" rx="3" opacity="0.85"></rect><g><defs><clipPath id="clip-o9py4n"><rect x="54" y="76" width="412" height="28"></rect></clipPath></defs><text x="260" y="90" text-anchor="middle" dominant-baseline="central" fill="#3c3836" font-family="'Segoe UI', system-ui, sans-serif" font-size="10.5" font-weight="600" clip-path="url(#clip-o9py4n)">created_at cursor: new inserts</text></g><rect x="470" y="76" width="280" height="28" fill="#6c8ebf" rx="3" opacity="0.85"></rect><g><defs><clipPath id="clip-4s6nao"><rect x="474" y="76" width="272" height="28"></rect></clipPath></defs><text x="610" y="90" text-anchor="middle" dominant-baseline="central" fill="#3c3836" font-family="'Segoe UI', system-ui, sans-serif" font-size="10.5" font-weight="600" clip-path="url(#clip-4s6nao)">created_at: Day 3–5</text></g><rect x="50" y="110" width="280" height="28" fill="#b8a44e" rx="3" opacity="0.85"></rect><g><defs><clipPath id="clip-17xgp4"><rect x="54" y="110" width="272" height="28"></rect></clipPath></defs><text x="190" y="124" text-anchor="middle" dominant-baseline="central" fill="#3c3836" font-family="'Segoe UI', system-ui, sans-serif" font-size="10.5" font-weight="600" clip-path="url(#clip-17xgp4)">updated_at cursor: modified rows</text></g><rect x="330" y="110" width="420" height="28" fill="#b8a44e" rx="3" opacity="0.85"></rect><g><defs><clipPath id="clip-fht0fw"><rect x="334" y="110" width="412" height="28"></rect></clipPath></defs><text x="540" y="124" text-anchor="middle" dominant-baseline="central" fill="#3c3836" font-family="'Segoe UI', system-ui, sans-serif" font-size="10.5" font-weight="600" clip-path="url(#clip-fht0fw)">updated_at: Day 2–5</text></g><line x1="470" y1="62" x2="470" y2="140" stroke="#6c8ebf" stroke-width="1.5" stroke-dasharray="4,3"></line><text x="470" y="58" text-anchor="middle" fill="#6c8ebf" font-family="'Segoe UI', system-ui, sans-serif" font-size="10" font-weight="600">created HWM</text><line x1="330" y1="62" x2="330" y2="140" stroke="#b8a44e" stroke-width="1.5" stroke-dasharray="4,3"></line><text x="330" y="58" text-anchor="middle" fill="#b8a44e" font-family="'Segoe UI', system-ui, sans-serif" font-size="10" font-weight="600">updated HWM</text></svg>
