<svg xmlns="http://www.w3.org/2000/svg" width="650" height="246" viewBox="0 0 650 246"><rect x="0" y="0" width="650" height="246" fill="#181825" rx="6"></rect><text x="325" y="26" text-anchor="middle" fill="#a6adc8" font-family="'Segoe UI', system-ui, sans-serif" font-size="13" letter-spacing="0.3">MERGE / upsert — match on key, update or insert</text><rect x="30" y="44" width="270" height="152" fill="#1e1e34" stroke="#585b70" stroke-width="1" rx="4"></rect><text x="165" y="36" text-anchor="middle" fill="#a6adc8" font-family="'Segoe UI', system-ui, sans-serif" font-size="11" font-weight="600">Staging (extracted)</text><rect x="30" y="44" width="270" height="32" fill="#252540" rx="4"></rect><rect x="30" y="70" width="270" height="6" fill="#252540"></rect><text x="75" y="60" text-anchor="middle" dominant-baseline="central" fill="#a6adc8" font-family="'Segoe UI', system-ui, sans-serif" font-size="10" font-weight="600">id</text><text x="165" y="60" text-anchor="middle" dominant-baseline="central" fill="#a6adc8" font-family="'Segoe UI', system-ui, sans-serif" font-size="10" font-weight="600">name</text><text x="255" y="60" text-anchor="middle" dominant-baseline="central" fill="#a6adc8" font-family="'Segoe UI', system-ui, sans-serif" font-size="10" font-weight="600">status</text><line x1="30" y1="76" x2="300" y2="76" stroke="#585b70" stroke-width="1"></line><rect x="31" y="77" width="268" height="28" fill="#b8a44e" opacity="0.12" rx="2"></rect><rect x="31" y="78" width="3" height="26" fill="#b8a44e" rx="1"></rect><text x="75" y="91" text-anchor="middle" dominant-baseline="central" fill="#cdd6f4" font-family="'Segoe UI', system-ui, sans-serif" font-size="11">1</text><text x="165" y="91" text-anchor="middle" dominant-baseline="central" fill="#cdd6f4" font-family="'Segoe UI', system-ui, sans-serif" font-size="11">Alice</text><text x="255" y="91" text-anchor="middle" dominant-baseline="central" fill="#cdd6f4" font-family="'Segoe UI', system-ui, sans-serif" font-size="11">shipped</text><rect x="31" y="107" width="268" height="28" fill="#5aab7b" opacity="0.12" rx="2"></rect><rect x="31" y="108" width="3" height="26" fill="#5aab7b" rx="1"></rect><line x1="38" y1="106" x2="292" y2="106" stroke="#313244" stroke-width="0.5"></line><text x="75" y="121" text-anchor="middle" dominant-baseline="central" fill="#cdd6f4" font-family="'Segoe UI', system-ui, sans-serif" font-size="11">4</text><text x="165" y="121" text-anchor="middle" dominant-baseline="central" fill="#cdd6f4" font-family="'Segoe UI', system-ui, sans-serif" font-size="11">Dave</text><text x="255" y="121" text-anchor="middle" dominant-baseline="central" fill="#cdd6f4" font-family="'Segoe UI', system-ui, sans-serif" font-size="11">pending</text><rect x="350" y="44" width="270" height="152" fill="#1e1e34" stroke="#585b70" stroke-width="1" rx="4"></rect><text x="485" y="36" text-anchor="middle" fill="#a6adc8" font-family="'Segoe UI', system-ui, sans-serif" font-size="11" font-weight="600">Destination (after MERGE)</text><rect x="350" y="44" width="270" height="32" fill="#252540" rx="4"></rect><rect x="350" y="70" width="270" height="6" fill="#252540"></rect><text x="395" y="60" text-anchor="middle" dominant-baseline="central" fill="#a6adc8" font-family="'Segoe UI', system-ui, sans-serif" font-size="10" font-weight="600">id</text><text x="485" y="60" text-anchor="middle" dominant-baseline="central" fill="#a6adc8" font-family="'Segoe UI', system-ui, sans-serif" font-size="10" font-weight="600">name</text><text x="575" y="60" text-anchor="middle" dominant-baseline="central" fill="#a6adc8" font-family="'Segoe UI', system-ui, sans-serif" font-size="10" font-weight="600">status</text><line x1="350" y1="76" x2="620" y2="76" stroke="#585b70" stroke-width="1"></line><rect x="351" y="77" width="268" height="28" fill="#b8a44e" opacity="0.12" rx="2"></rect><rect x="351" y="78" width="3" height="26" fill="#b8a44e" rx="1"></rect><text x="395" y="91" text-anchor="middle" dominant-baseline="central" fill="#cdd6f4" font-family="'Segoe UI', system-ui, sans-serif" font-size="11">1</text><text x="485" y="91" text-anchor="middle" dominant-baseline="central" fill="#cdd6f4" font-family="'Segoe UI', system-ui, sans-serif" font-size="11">Alice</text><text x="575" y="91" text-anchor="middle" dominant-baseline="central" fill="#cdd6f4" font-family="'Segoe UI', system-ui, sans-serif" font-size="11">shipped</text><line x1="358" y1="106" x2="612" y2="106" stroke="#313244" stroke-width="0.5"></line><text x="395" y="121" text-anchor="middle" dominant-baseline="central" fill="#cdd6f4" font-family="'Segoe UI', system-ui, sans-serif" font-size="11">2</text><text x="485" y="121" text-anchor="middle" dominant-baseline="central" fill="#cdd6f4" font-family="'Segoe UI', system-ui, sans-serif" font-size="11">Bob</text><text x="575" y="121" text-anchor="middle" dominant-baseline="central" fill="#cdd6f4" font-family="'Segoe UI', system-ui, sans-serif" font-size="11">active</text><line x1="358" y1="136" x2="612" y2="136" stroke="#313244" stroke-width="0.5"></line><text x="395" y="151" text-anchor="middle" dominant-baseline="central" fill="#cdd6f4" font-family="'Segoe UI', system-ui, sans-serif" font-size="11">3</text><text x="485" y="151" text-anchor="middle" dominant-baseline="central" fill="#cdd6f4" font-family="'Segoe UI', system-ui, sans-serif" font-size="11">Carol</text><text x="575" y="151" text-anchor="middle" dominant-baseline="central" fill="#cdd6f4" font-family="'Segoe UI', system-ui, sans-serif" font-size="11">active</text><rect x="351" y="167" width="268" height="28" fill="#5aab7b" opacity="0.12" rx="2"></rect><rect x="351" y="168" width="3" height="26" fill="#5aab7b" rx="1"></rect><line x1="358" y1="166" x2="612" y2="166" stroke="#313244" stroke-width="0.5"></line><text x="395" y="181" text-anchor="middle" dominant-baseline="central" fill="#cdd6f4" font-family="'Segoe UI', system-ui, sans-serif" font-size="11">4</text><text x="485" y="181" text-anchor="middle" dominant-baseline="central" fill="#cdd6f4" font-family="'Segoe UI', system-ui, sans-serif" font-size="11">Dave</text><text x="575" y="181" text-anchor="middle" dominant-baseline="central" fill="#cdd6f4" font-family="'Segoe UI', system-ui, sans-serif" font-size="11">pending</text><line x1="311" y1="120" x2="335" y2="120" stroke="#6c7086" stroke-width="1.5"></line><polygon points="335,116 343,120 335,124" fill="#6c7086"></polygon><rect x="30" y="208" width="10" height="10" fill="#b8a44e" rx="2"></rect><text x="44" y="215" fill="#a6adc8" font-family="'Segoe UI', system-ui, sans-serif" font-size="10">matched → UPDATE</text><rect x="164" y="208" width="10" height="10" fill="#5aab7b" rx="2"></rect><text x="178" y="215" fill="#a6adc8" font-family="'Segoe UI', system-ui, sans-serif" font-size="10">not matched → INSERT</text><rect x="324" y="208" width="10" height="10" fill="#b8a44e" rx="2"></rect><text x="338" y="215" fill="#a6adc8" font-family="'Segoe UI', system-ui, sans-serif" font-size="10">updated</text><rect x="399.5" y="208" width="10" height="10" fill="#5aab7b" rx="2"></rect><text x="413.5" y="215" fill="#a6adc8" font-family="'Segoe UI', system-ui, sans-serif" font-size="10">inserted</text></svg>
