<svg xmlns="http://www.w3.org/2000/svg" width="820" height="360" viewBox="0 0 820 360">
  <rect width="820" height="360" fill="#1d2021" rx="8"/>
  <!-- Title -->
  <text x="450" y="28" text-anchor="middle" fill="#fbf1c7" font-family="system-ui,sans-serif" font-size="16" font-weight="500">Load Strategy Spectrum</text>
  <text x="450" y="46" text-anchor="middle" fill="#a89984" font-family="system-ui,sans-serif" font-size="11">The corridor determines where each fits.</text>

  <!-- Column headers -->
  <text x="680" y="72" text-anchor="middle" fill="#928374" font-family="system-ui,sans-serif" font-size="9">COST</text>
  <line x1="720" y1="62" x2="720" y2="72" stroke="#3c3836" stroke-width="0.5"/>
  <text x="760" y="72" text-anchor="middle" fill="#928374" font-family="system-ui,sans-serif" font-size="9">COMPLEXITY</text>

  <!-- 1. Append-only -->
  <rect x="16" y="78" width="784" height="48" fill="#282828" rx="6"/>
  <circle cx="38" cy="102" r="12" fill="#fe8019"/>
  <text x="38" y="107" text-anchor="middle" fill="#1d2021" font-family="system-ui,sans-serif" font-size="12" font-weight="700">1</text>
  <text x="60" y="96" fill="#8ec07c" font-family="system-ui,sans-serif" font-size="13" font-weight="600">Append-only</text>
  <text x="60" y="112" fill="#a89984" font-family="system-ui,sans-serif" font-size="10">Pure INSERT. No key matching. Idempotent at view level, not table level.</text>
  <circle cx="680" cy="102" r="7" fill="#8ec07c"/>
  <circle cx="680" cy="102" r="11" fill="#8ec07c" opacity="0.15"/>
  <line x1="720" y1="88" x2="720" y2="116" stroke="#3c3836" stroke-width="0.5"/>
  <circle cx="760" cy="102" r="7" fill="#8ec07c"/>
  <circle cx="760" cy="102" r="11" fill="#8ec07c" opacity="0.15"/>

  <!-- 2. Full replace -->
  <rect x="16" y="132" width="784" height="48" fill="#282828" rx="6"/>
  <circle cx="38" cy="156" r="12" fill="#fe8019"/>
  <text x="38" y="161" text-anchor="middle" fill="#1d2021" font-family="system-ui,sans-serif" font-size="12" font-weight="700">2</text>
  <text x="60" y="150" fill="#b8bb26" font-family="system-ui,sans-serif" font-size="13" font-weight="600">Full replace</text>
  <text x="60" y="166" fill="#a89984" font-family="system-ui,sans-serif" font-size="10">Staging swap or partition swap. No merge logic. Idempotent by construction.</text>
  <circle cx="680" cy="156" r="7" fill="#fabd2f"/>
  <circle cx="680" cy="156" r="11" fill="#fabd2f" opacity="0.15"/>
  <line x1="720" y1="142" x2="720" y2="170" stroke="#3c3836" stroke-width="0.5"/>
  <circle cx="760" cy="156" r="7" fill="#8ec07c"/>
  <circle cx="760" cy="156" r="11" fill="#8ec07c" opacity="0.15"/>

  <!-- 3. Append + materialize -->
  <rect x="16" y="186" width="784" height="48" fill="#282828" rx="6"/>
  <circle cx="38" cy="210" r="12" fill="#fe8019"/>
  <text x="38" y="215" text-anchor="middle" fill="#1d2021" font-family="system-ui,sans-serif" font-size="12" font-weight="700">3</text>
  <text x="60" y="204" fill="#fabd2f" font-family="system-ui,sans-serif" font-size="13" font-weight="600">Append + materialize</text>
  <text x="60" y="220" fill="#a89984" font-family="system-ui,sans-serif" font-size="10">Append raw + dedup view. Cheap writes, heavier reads.</text>
  <circle cx="680" cy="210" r="7" fill="#8ec07c"/>
  <circle cx="680" cy="210" r="11" fill="#8ec07c" opacity="0.15"/>
  <line x1="720" y1="196" x2="720" y2="224" stroke="#3c3836" stroke-width="0.5"/>
  <circle cx="760" cy="210" r="7" fill="#fabd2f"/>
  <circle cx="760" cy="210" r="11" fill="#fabd2f" opacity="0.15"/>

  <!-- 4. Merge / upsert -->
  <rect x="16" y="240" width="784" height="48" fill="#282828" rx="6"/>
  <circle cx="38" cy="264" r="12" fill="#fe8019"/>
  <text x="38" y="269" text-anchor="middle" fill="#1d2021" font-family="system-ui,sans-serif" font-size="12" font-weight="700">4</text>
  <text x="60" y="258" fill="#fb4934" font-family="system-ui,sans-serif" font-size="13" font-weight="600">Merge / upsert</text>
  <text x="60" y="274" fill="#a89984" font-family="system-ui,sans-serif" font-size="10">Match on key, update or insert. Most expensive DML in columnar engines.</text>
  <circle cx="680" cy="264" r="7" fill="#fb4934"/>
  <circle cx="680" cy="264" r="11" fill="#fb4934" opacity="0.15"/>
  <line x1="720" y1="250" x2="720" y2="278" stroke="#3c3836" stroke-width="0.5"/>
  <circle cx="760" cy="264" r="7" fill="#fabd2f"/>
  <circle cx="760" cy="264" r="11" fill="#fabd2f" opacity="0.15"/>

  <!-- 5. Hybrid append + merge -->
  <rect x="16" y="294" width="784" height="48" fill="#282828" rx="6"/>
  <circle cx="38" cy="318" r="12" fill="#fe8019"/>
  <text x="38" y="323" text-anchor="middle" fill="#1d2021" font-family="system-ui,sans-serif" font-size="12" font-weight="700">5</text>
  <text x="60" y="312" fill="#fb4934" font-family="system-ui,sans-serif" font-size="13" font-weight="600">Hybrid append + merge</text>
  <text x="60" y="328" fill="#a89984" font-family="system-ui,sans-serif" font-size="10">Two destinations (append log + merged current). Maximum complexity.</text>
  <circle cx="680" cy="318" r="7" fill="#fabd2f"/>
  <circle cx="680" cy="318" r="11" fill="#fabd2f" opacity="0.15"/>
  <line x1="720" y1="304" x2="720" y2="332" stroke="#3c3836" stroke-width="0.5"/>
  <circle cx="760" cy="318" r="7" fill="#fb4934"/>
  <circle cx="760" cy="318" r="11" fill="#fb4934" opacity="0.15"/>
</svg>
